<?xml version="1.0" encoding="UTF-8"?>
<svg width="1970px" height="237px" viewBox="0 0 1970 237" version="1.1" xmlns="http://www.w3.org/2000/svg" xmlns:xlink="http://www.w3.org/1999/xlink">
    <!-- Generator: Sketch 45.1 (43504) - http://www.bohemiancoding.com/sketch -->
    <title>footer</title>
    <desc>Created with Sketch.</desc>
    <defs></defs>
    <g id="导出图片" stroke="none" stroke-width="1" fill="none" fill-rule="evenodd">
        <g id="footer" fill="#4A4A4A">
            <g id="Group" transform="translate(208.000000, -29.000000)">
                <path d="M968.041969,37.53769 L1011.85019,64.0346275 L1011.85019,11.0379837 L968.041969,37.53769 Z M1013.23373,66.4905088 L965.366214,37.53769 L1013.23373,8.5821025 L1013.23373,66.4905088 Z" id="Fill-2"></path>
                <polygon id="Fill-3" points="982.752811 47.6879275 982.094249 46.4724462 998.577675 37.5626087 981.358209 28.9905587 981.975265 27.7529275 1001.58271 37.5127712"></polygon>
                <g id="Group-6" transform="translate(1021.000000, 193.000000)">
                    <path d="M2.22847108,2.90053937 L1.99050321,54.1251831 L47.4285313,30.5298956 L2.22847108,2.90053937 Z M0.595900803,56.4066331 L0.856005221,0.439120625 L50.2454068,30.6268019 L0.595900803,56.4066331 Z" id="Fill-4"></path>
                    <polygon id="Fill-5" points="37.0141165 37.4451256 0.834698795 15.3338881 1.55413655 14.1544006 37.7335542 36.2656381"></polygon>
                </g>
                <g id="Group-8" transform="translate(631.000000, 30.000000)">
                    <path d="M0.0432156627,26.6180119 L45.854798,58.7272056 L49.7508301,0.948930625 L0.0432156627,26.6180119 Z M2.71343655,26.7952119 L48.204039,3.30790562 L44.640055,56.1854931 L2.71343655,26.7952119 Z" id="Fill-8"></path>
                </g>
                <g id="Group-8" transform="translate(1376.000000, 0.000000)">
                    <path d="M0.0432156627,26.6180119 L45.854798,58.7272056 L49.7508301,0.948930625 L0.0432156627,26.6180119 Z M2.71343655,26.7952119 L48.204039,3.30790562 L44.640055,56.1854931 L2.71343655,26.7952119 Z" id="Fill-8"></path>
                </g>
                <polygon id="Fill-18" points="1526.74654 156.318172 1510.10539 139.66691 1511.08493 138.689541 1527.72608 155.338035"></polygon>
                <polygon id="Fill-19" points="1511.08438 156.318172 1510.10483 155.338035 1526.74598 138.689541 1527.72552 139.66691"></polygon>
                <g id="Group-2" transform="translate(91.000000, 241.000000)">
                    <polygon id="Fill-26" points="38.595696 23.5244362 15.5709209 0.80961125 6.17118996 31.767005"></polygon>
                </g>
                <g id="Group-7" transform="translate(1147.000000, 135.000000)">
                    <polygon id="Fill-28" points="47.3552261 29.3277437 26.9591659 26.0052437 20.1743145 35.4106875 45.3740052 53.61245"></polygon>
                    <polygon id="Fill-29" points="27.3100301 23.2547675 47.5788052 26.5578863 49.7315843 0.19384875 22.4067851 11.8142925"></polygon>
                    <polygon id="Fill-30" points="24.7593466 24.32572 19.8588687 12.89632 0.436816466 21.15827 17.9302221 33.7920762"></polygon>
                </g>
                <path d="M1470.49176,195.956705 C1455.616,195.956705 1443.51284,208.067218 1443.51284,222.952018 C1443.51284,237.836818 1455.616,249.94733 1470.49176,249.94733 C1485.36752,249.94733 1497.47068,237.836818 1497.47068,222.952018 C1497.47068,208.067218 1485.36752,195.956705 1470.49176,195.956705 M1470.49176,251.331705 C1454.85229,251.331705 1442.12931,238.600993 1442.12931,222.952018 C1442.12931,207.303043 1454.85229,194.57233 1470.49176,194.57233 C1486.13123,194.57233 1498.85421,207.303043 1498.85421,222.952018 C1498.85421,238.600993 1486.13123,251.331705 1470.49176,251.331705" id="Fill-31"></path>
                <path d="M1470.49176,204.955142 C1460.57459,204.955142 1452.50582,213.028818 1452.50582,222.952018 C1452.50582,232.875218 1460.57459,240.948892 1470.49176,240.948892 C1480.40893,240.948892 1488.4777,232.875218 1488.4777,222.952018 C1488.4777,213.028818 1480.40893,204.955142 1470.49176,204.955142 M1470.49176,242.333267 C1459.81364,242.333267 1451.12228,233.636624 1451.12228,222.952017 C1451.12228,212.267411 1459.81364,203.570767 1470.49176,203.570767 C1481.16988,203.570767 1489.86124,212.267411 1489.86124,222.952017 C1489.86124,233.636624 1481.16988,242.333267 1470.49176,242.333267" id="Fill-33"></path>
                <path d="M512.512187,232.39545 C501.006717,232.763694 491.759175,242.243894 491.759175,253.842188 C491.759175,265.44325 501.006717,274.920681 512.512187,275.288925 L512.512187,232.39545 Z M513.895721,276.684375 L513.203954,276.684375 C500.616561,276.684375 490.375641,266.437231 490.375641,253.842188 C490.375641,241.247144 500.616561,231 513.203954,231 L513.895721,231 L513.895721,276.684375 Z" id="Fill-35"></path>
                <path d="M534.512187,253.15 C534.512187,240.917663 524.600549,231 512.375641,231 L512.375641,275.3 C524.600549,275.3 534.512187,265.382338 534.512187,253.15" id="Fill-37"></path>
                <path d="M513.759175,232.39545 L513.759175,275.288925 C525.264645,274.920681 534.512187,265.44325 534.512187,253.842188 C534.512187,242.243894 525.264645,232.763694 513.759175,232.39545 M513.067408,276.684375 L512.375641,276.684375 L512.375641,231 L513.067408,231 C525.654802,231 535.895721,241.247144 535.895721,253.842188 C535.895721,266.437231 525.654802,276.684375 513.067408,276.684375" id="Fill-39"></path>
                <g id="Group-5" transform="translate(0.000000, 21.000000)">
                    <polygon id="Fill-41" points="13.7686141 22.9273463 31.8375699 12.9017025 31.3450317 1.3061775 0.295758635 2.63240875"></polygon>
                    <g id="Group-4" transform="translate(15.000000, 0.000000)">
                        <polygon id="Fill-43" points="18.2651004 15.2781206 0.304060241 25.2428519 14.9335502 47.2765644 29.1950201 21.2198581"></polygon>
                        <polygon id="Fill-45" points="19.6054683 12.8554644 30.5243197 18.7944331 40.6628578 0.271495625 19.1101631 1.19072062"></polygon>
                    </g>
                </g>
                <path d="M1134.29297,99.7426425 C1133.91111,99.7426425 1133.6012,99.4325425 1133.6012,99.050455 L1133.6012,93.512955 C1133.6012,88.551355 1129.56681,84.5145175 1124.60823,84.5145175 C1119.64964,84.5145175 1115.61525,88.551355 1115.61525,93.512955 L1115.61525,99.050455 C1115.61525,99.4325425 1115.30534,99.7426425 1114.92349,99.7426425 C1114.54163,99.7426425 1114.23172,99.4325425 1114.23172,99.050455 L1114.23172,93.512955 C1114.23172,87.7899487 1118.8887,83.1301425 1124.60823,83.1301425 C1130.32776,83.1301425 1134.98473,87.7899487 1134.98473,93.512955 L1134.98473,99.050455 C1134.98473,99.4325425 1134.67482,99.7426425 1134.29297,99.7426425" id="Fill-47"></path>
                <path d="M1105.93052,99.7426425 C1105.54866,99.7426425 1105.23875,99.4325425 1105.23875,99.050455 L1105.23875,93.512955 C1105.23875,88.551355 1101.20436,84.5145175 1096.24578,84.5145175 C1091.28719,84.5145175 1087.2528,88.551355 1087.2528,93.512955 L1087.2528,99.050455 C1087.2528,99.4325425 1086.94289,99.7426425 1086.56104,99.7426425 C1086.17918,99.7426425 1085.86927,99.4325425 1085.86927,99.050455 L1085.86927,93.512955 C1085.86927,87.7899487 1090.52625,83.1301425 1096.24578,83.1301425 C1101.96531,83.1301425 1106.62228,87.7899487 1106.62228,93.512955 L1106.62228,99.050455 C1106.62228,99.4325425 1106.31237,99.7426425 1105.93052,99.7426425" id="Fill-49"></path>
                <path d="M1077.56807,99.7426425 C1077.18621,99.7426425 1076.8763,99.4325425 1076.8763,99.050455 L1076.8763,93.512955 C1076.8763,88.551355 1072.84191,84.5145175 1067.88333,84.5145175 C1062.92474,84.5145175 1058.89036,88.551355 1058.89036,93.512955 L1058.89036,99.050455 C1058.89036,99.4325425 1058.58044,99.7426425 1058.19859,99.7426425 C1057.81673,99.7426425 1057.50682,99.4325425 1057.50682,99.050455 L1057.50682,93.512955 C1057.50682,87.7899487 1062.1638,83.1301425 1067.88333,83.1301425 C1073.60286,83.1301425 1078.25983,87.7899487 1078.25983,93.512955 L1078.25983,99.050455 C1078.25983,99.4325425 1077.94992,99.7426425 1077.56807,99.7426425" id="Fill-51"></path>
                <path d="M803.061245,239.6125 C802.67939,239.6125 802.369478,239.3024 802.369478,238.920313 L802.369478,233.382812 C802.369478,228.421212 798.335092,224.384375 793.376506,224.384375 C788.41792,224.384375 784.383534,228.421212 784.383534,233.382812 L784.383534,238.920313 C784.383534,239.3024 784.073622,239.6125 783.691767,239.6125 C783.309912,239.6125 783,239.3024 783,238.920313 L783,233.382812 C783,227.659806 787.656976,223 793.376506,223 C799.096036,223 803.753012,227.659806 803.753012,233.382812 L803.753012,238.920313 C803.753012,239.3024 803.4431,239.6125 803.061245,239.6125" id="Fill-47"></path>
                <path d="M774.061245,239.6125 C773.67939,239.6125 773.369478,239.3024 773.369478,238.920313 L773.369478,233.382812 C773.369478,228.421212 769.335092,224.384375 764.376506,224.384375 C759.41792,224.384375 755.383534,228.421212 755.383534,233.382812 L755.383534,238.920313 C755.383534,239.3024 755.073622,239.6125 754.691767,239.6125 C754.309912,239.6125 754,239.3024 754,238.920313 L754,233.382812 C754,227.659806 758.656976,223 764.376506,223 C770.096036,223 774.753012,227.659806 774.753012,233.382812 L774.753012,238.920313 C774.753012,239.3024 774.4431,239.6125 774.061245,239.6125" id="Fill-49"></path>
                <path d="M746.061245,239.6125 C745.67939,239.6125 745.369478,239.3024 745.369478,238.920313 L745.369478,233.382812 C745.369478,228.421212 741.335092,224.384375 736.376506,224.384375 C731.41792,224.384375 727.383534,228.421212 727.383534,233.382812 L727.383534,238.920313 C727.383534,239.3024 727.073622,239.6125 726.691767,239.6125 C726.309912,239.6125 726,239.3024 726,238.920313 L726,233.382812 C726,227.659806 730.656976,223 736.376506,223 C742.096036,223 746.753012,227.659806 746.753012,233.382812 L746.753012,238.920313 C746.753012,239.3024 746.4431,239.6125 746.061245,239.6125" id="Fill-51"></path>
                <path d="M1345.97369,222.25983 C1345.97369,226.847649 1342.25752,230.56608 1337.67248,230.56608 C1333.08745,230.56608 1329.37128,226.847649 1329.37128,222.25983 C1329.37128,217.672011 1333.08745,213.95358 1337.67248,213.95358 C1342.25752,213.95358 1345.97369,217.672011 1345.97369,222.25983" id="Fill-59"></path>
                <path d="M977.953608,105.97233 C977.953608,112.088499 972.997789,117.04733 966.885335,117.04733 C960.772881,117.04733 955.817062,112.088499 955.817062,105.97233 C955.817062,99.8561612 960.772881,94.89733 966.885335,94.89733 C972.997789,94.89733 977.953608,99.8561612 977.953608,105.97233" id="Fill-61"></path>
                <path d="M726.136546,160.075 C726.136546,166.191169 721.180727,171.15 715.068273,171.15 C708.955819,171.15 704,166.191169 704,160.075 C704,153.958831 708.955819,149 715.068273,149 C721.180727,149 726.136546,153.958831 726.136546,160.075" id="Fill-61"></path>
                <g id="Group-3" transform="translate(765.000000, 68.000000)">
                    <polygon id="Fill-22" points="0.673076305 12.784375 24.2042249 12.784375 24.2042249 11.4 0.673076305 11.4"></polygon>
                    <polygon id="Fill-23" points="11.7441165 23.8621438 13.1276506 23.8621438 13.1276506 0.3194625 11.7441165 0.3194625"></polygon>
                </g>
                <path d="M882.860457,142.998616 L831.73887,170.140672 L879.736437,198.877528 L882.860457,142.998616 Z M834.552979,170.209891 L881.341336,145.374203 L878.480188,196.515784 L834.552979,170.209891 Z" id="Fill-6"></path>
                <polygon id="Fill-7" points="861.913196 186.417322 860.811903 185.578391 880.458088 159.745954 881.562148 160.584885"></polygon>
                <polygon id="Fill-16" points="638.778664 151.724422 622.137515 135.07316 623.117057 134.095791 639.758206 150.744285"></polygon>
                <polygon id="Fill-17" points="623.116504 151.724422 622.136962 150.744285 638.77811 134.095791 639.757653 135.07316"></polygon>
            </g>
        </g>
    </g>
</svg>